# xmcd CD database file
#
# Track frame offsets:
#	150
#	17720
#	48655
#	69297
#	93625
#	118222
#	137785
#	159350
#	195532
#	226497
#	242725
#	269845
#	291242
#
# Disc length: 4100 seconds
#
# Revision: 0
# Processed by: cddbd v1.5.2PL0 Copyright (c) Steve Scherf et al.
# Submitted via: CDex 1.70beta1
#
DISCID=c310020d
DTITLE=tv-jazz - TV－JAZZ１
DYEAR=1900
DGENRE=Jazz
TTITLE0=ホワッツ・ニュー
TTITLE1=マイ・フェイバリット・シングス
TTITLE2=クロース・トゥー・ユー
TTITLE3=ワーク・ソング
TTITLE4=ホワット・ア・ワンダフル・ワールド
TTITLE5=イパネマの娘
TTITLE6=エフワン
TTITLE7=サマーﾀｲﾑ
TTITLE8=ジョージア・オン・マイ・マインド
TTITLE9=Ａ列車で行こう
TTITLE10=スターダスト
TTITLE11=モーニン
TTITLE12=やさしく歌って
EXTD=
EXTT0=
EXTT1=
EXTT2=
EXTT3=
EXTT4=
EXTT5=
EXTT6=
EXTT7=
EXTT8=
EXTT9=
EXTT10=
EXTT11=
EXTT12=
PLAYORDER=
